<svg xmlns="http://www.w3.org/2000/svg" width="352" height="224" fill="none"><g clip-path="url(#a)"><path fill="#FCA700" d="M32 0h202v224H32z"></path><path fill="#82B536" d="M189 14.991h152.689V217.96H189z" style="mix-blend-mode:multiply" transform="rotate(-3 189 14.991)"></path><path fill="#fff" d="M56 24h272v176H56z"></path><path fill="#F7F8F9" d="M72 64h240.3v38H72z"></path><path fill="#172B4D" d="M151.994 82.004c-12.408 2.306-21.562-3.596-34.093 1.245-.585-2.073-2.098-4.67-4.361-4.708 1.888.048 4.908 5.465 1.873 1.836-1.783-2.763-9.577.614-3.604-1.788-4.123.509-7.904 3.871-10.691 6.862-4.637 4.262-1.118-3.985-4.47-8.132-4.751-5.764-19.17 9.226-16.265 9.236 1.85-1.879 4.333-3.049 5.36-5.132 18.086-12.331 5.036 10.491 15.808 6.668 17.596-15.85 8.703-1.503 19.032-2.483 6.021-5.745 31.62 3.263 31.416-3.605h-.005Z"></path><rect width="32" height="24" x="162.3" y="71" fill="#FFE48F" rx="3"></rect><g clip-path="url(#b)"><path fill="#C1694F" d="M177.897 85.774h-4.237s.735 2.875 1.891 4.258c.787.942 2.111 1.015 2.582 1.015.941 0 2.141-.078 2.928-1.02 1.372-1.64 2.015-4.253 2.015-4.253h-5.179Z"></path><path fill="#A04E3C" d="M182.579 87.296c.204-.524.343-.97.421-1.242a1.097 1.097 0 0 0-.192-.28h-8.88c-.082.09-.148.183-.192.28.078.27.213.714.397 1.223.682.606 2.099 1.092 4.235 1.092 2.113 0 3.521-.476 4.211-1.073ZM178.3 84.97c2.888 0 5.23-.54 5.23-1.207s-2.342-1.207-5.23-1.207c-2.889 0-5.23.54-5.23 1.207 0 .666 2.341 1.207 5.23 1.207Z"></path><path fill="#662113" d="M173.775 84.366c.905.36 2.59.603 4.525.603 1.935 0 3.62-.243 4.525-.603-.905-.36-2.59-.604-4.525-.604-1.935 0-3.62.244-4.525.604Z"></path><path fill="#3E721D" d="M178.626 85.455a.237.237 0 0 1-.234-.2c-.477-3.148.403-7.745 2.429-9.31a.237.237 0 0 1 .29.375c-1.843 1.422-2.708 5.852-2.251 8.863a.236.236 0 0 1-.234.272Z"></path><path fill="#3E721D" d="M178.631 81.986c.027.178.562.246 1.196.15.632-.097 1.124-.32 1.097-.498-.027-.178-.562-.245-1.196-.149-.633.096-1.124.319-1.097.497Zm.042.773c.027.178.604.239 1.288.135.684-.104 1.216-.332 1.189-.51-.027-.18-.603-.24-1.287-.136-.684.104-1.217.332-1.19.511ZM180.049 83.649c.748-.114 1.332-.35 1.305-.529-.027-.178-.655-.23-1.403-.117-.749.114-1.333.35-1.306.529.027.178.655.23 1.404.117ZM178.787 81.323c.045.174.549.193 1.124.042.576-.151 1.005-.416.959-.59-.046-.175-.549-.193-1.125-.042-.575.151-1.004.415-.958.59Zm.079-.785c.053.173.51.183 1.021.024.51-.16.88-.428.826-.6-.054-.173-.51-.183-1.021-.024-.51.16-.88.428-.826.6Zm.046-.704c.057.145.475.117.935-.062.459-.18.786-.441.73-.586-.057-.144-.475-.117-.934.062-.46.18-.787.441-.731.586Zm.357-.772c.05.13.399.114.778-.034.38-.147.647-.372.597-.501-.05-.13-.399-.115-.779.033-.38.148-.647.372-.596.502Zm.29-.853c.022.137.319.203.663.147.344-.056.605-.212.583-.349-.022-.137-.319-.203-.664-.147-.344.056-.605.212-.582.35Zm.349-.567c.023.143.35.21.729.147.38-.061.669-.227.646-.37-.024-.143-.35-.21-.73-.147-.379.061-.668.227-.645.37Zm.512-.64c.021.127.317.185.663.13.345-.057.608-.206.587-.333-.021-.128-.317-.186-.663-.13-.344.057-.608.206-.587.333Zm.422-.604c.018.112.268.164.558.117.29-.047.511-.176.492-.287-.018-.112-.268-.164-.558-.117-.29.047-.511.176-.492.287Z"></path><path fill="#3E721D" d="M181.158 76.045c.057.097.309.055.563-.094.253-.15.412-.35.354-.447-.057-.097-.309-.055-.562.094-.254.15-.412.35-.355.447Z"></path><path fill="#3E721D" d="M180.996 76.018c.108.033.265-.17.349-.45.085-.282.066-.536-.042-.57-.109-.032-.265.17-.35.451-.084.282-.065.537.043.57Zm-4.798 5.867c0 .18.519.327 1.159.327.641 0 1.16-.147 1.16-.327 0-.18-.519-.327-1.16-.327-.64 0-1.159.146-1.159.327Zm-.15.648c-.017.18.486.375 1.123.436s1.168-.035 1.185-.214c.018-.18-.485-.375-1.122-.436-.638-.062-1.168.034-1.186.214Zm-.238.735c-.018.18.542.38 1.249.448.707.068 1.295-.023 1.312-.202.017-.18-.542-.38-1.249-.449-.708-.068-1.295.023-1.312.203Zm.729-2.193c-.016.18.43.363.994.41.564.047 1.033-.06 1.048-.24.015-.18-.43-.364-.994-.41-.564-.048-1.033.06-1.048.24Zm.345-.624c-.008.18.403.345.918.368.515.022.939-.105.947-.285.008-.18-.403-.345-.918-.368-.515-.023-.939.104-.947.285Z"></path><path fill="#3E721D" d="M177.333 79.745c-.03.157.291.35.717.433.425.082.795.022.825-.135.031-.156-.29-.35-.716-.432-.426-.083-.796-.022-.826.134Zm.206-.8c-.06.147.218.4.62.563.401.163.776.175.836.028.06-.148-.217-.4-.619-.564-.402-.163-.777-.175-.837-.028Zm.17-.902c-.084.122.15.429.523.685.374.257.744.365.828.243.084-.122-.15-.43-.523-.686-.374-.256-.744-.365-.828-.242Zm.502-.39c-.084.122.112.402.437.626.326.223.658.305.742.183.084-.122-.112-.403-.437-.626-.326-.224-.658-.306-.742-.184Zm.312-.686c-.104.106.041.416.324.69.284.276.596.413.7.307.104-.107-.042-.416-.325-.692-.283-.275-.596-.412-.699-.305Zm.406-.49c-.104.106.024.398.284.651.261.253.556.373.659.266.104-.106-.024-.398-.284-.651-.261-.254-.556-.373-.659-.267Zm.418-.433c-.102.105.008.377.245.608.238.23.513.333.615.229.101-.105-.008-.377-.246-.608-.238-.23-.513-.333-.614-.229Z"></path><path fill="#3E721D" d="M180.483 76.59c.123-.079.078-.369-.1-.648-.178-.28-.422-.442-.545-.363-.123.078-.079.368.099.648.178.279.423.441.546.363ZM180.435 75.239c-.116.04-.136.289-.043.556.092.266.261.45.377.41.116-.04.136-.289.043-.556-.092-.267-.261-.45-.377-.41ZM177.804 85.502a.238.238 0 0 1-.201-.256c.335-3.632-1.051-6.209-3.903-7.254a.236.236 0 0 1-.14-.303.234.234 0 0 1 .303-.14c3.072 1.125 4.568 3.874 4.212 7.74a.237.237 0 0 1-.271.213Z"></path><path fill="#3E721D" d="M177.706 82.471c-.003.18-.525.317-1.165.305-.641-.012-1.157-.168-1.154-.348.004-.18.526-.317 1.166-.306.64.013 1.156.169 1.153.35Zm-.001.781c-.003.18-.525.317-1.165.306-.641-.012-1.294-.213-1.291-.393.003-.18.663-.273 1.303-.26.64.011 1.156.167 1.153.347Z"></path><path fill="#5C913B" d="M177.89 83.932c-.004.18-.525.317-1.166.306-.64-.012-1.294-.213-1.29-.393.003-.18.662-.273 1.303-.26.64.011 1.156.167 1.153.347Z"></path><path fill="#3E721D" d="M177.633 81.897c-.024.178-.522.259-1.111.18-.59-.08-1.048-.29-1.024-.468.024-.179.521-.26 1.111-.18.59.08 1.048.289 1.024.468Zm-.331-.787c-.024.179-.473.266-1.003.195-.529-.071-.939-.274-.915-.453.024-.179.473-.266 1.003-.195.529.072.939.275.915.453Z"></path><path fill="#3E721D" d="M177.106 80.378c.002.155-.397.285-.89.29-.493.006-.894-.116-.896-.27-.001-.156.397-.286.89-.291.493-.006.894.116.896.27Zm-.619-.584c.002.139-.327.255-.734.26-.408.004-.739-.105-.741-.243-.001-.139.328-.255.735-.26.408-.005.739.104.74.243Zm-.587-.683c.031.136-.22.307-.561.384-.34.076-.64.028-.671-.107-.03-.136.221-.307.561-.384.341-.076.641-.028.671.107Zm-.535-.396c.032.141-.246.325-.622.409-.375.084-.705.038-.736-.104-.032-.14.246-.324.621-.408.375-.084.705-.038.737.103Zm-.714-.403c.028.126-.225.29-.567.367-.341.077-.64.037-.669-.09-.028-.125.226-.29.567-.366.341-.077.641-.037.669.089Zm-.616-.403c.024.11-.188.252-.475.316-.287.065-.54.028-.564-.083-.025-.11.187-.252.474-.316.287-.065.54-.027.565.083Z"></path><path fill="#3E721D" d="M173.609 77.7c-.017.11-.266.166-.557.121-.291-.044-.513-.17-.495-.282.017-.112.266-.167.557-.123.29.045.512.172.495.283Z"></path><path fill="#5C913B" d="M173.75 77.614c-.088.07-.309-.058-.492-.288-.184-.23-.261-.473-.173-.543.089-.071.309.058.493.288.183.23.26.473.172.543Zm6.302 4.323c.029.179-.461.406-1.093.507-.632.102-1.168.04-1.196-.138-.029-.178.46-.405 1.092-.507.632-.102 1.168-.04 1.197.138Zm.393.569c.029.178-.657.533-1.29.635-.632.102-1.168.04-1.196-.138-.029-.179.46-.406 1.092-.507.633-.102 1.365-.168 1.394.01Zm.246.746c.028.178-.835.578-1.467.68-.632.102-1.168.04-1.196-.138-.029-.178.46-.406 1.092-.507.632-.102 1.542-.213 1.571-.035Zm-1.149-2.164c.055.172-.337.452-.876.624-.539.174-1.02.175-1.075.003-.056-.172.336-.452.875-.625.539-.173 1.021-.174 1.076-.002Zm-.355-.63c.055.173-.298.44-.789.597-.491.157-.933.146-.988-.025-.055-.172.297-.44.788-.597.491-.157.933-.146.989.026Zm-.649-.751c.086.134-.139.433-.503.668-.365.235-.731.317-.817.183-.086-.135.139-.434.504-.669.364-.234.729-.316.816-.182Zm-.49-.667c.111.115-.052.452-.364.754-.312.301-.655.452-.766.338-.111-.115.053-.453.365-.754s.655-.452.765-.338Zm-.493-.773c.124.082.021.454-.23.831-.25.377-.554.616-.678.534-.123-.082-.02-.454.23-.832.251-.376.554-.616.678-.533Zm-.612-.175c.124.082.047.415-.172.744-.219.329-.496.528-.62.446-.123-.082-.046-.415.172-.744.219-.328.496-.528.62-.446Zm-.544-.52c.135.06.116.401-.044.762s-.4.605-.536.545c-.135-.06-.116-.402.044-.763.16-.36.4-.604.536-.544Zm-.56-.304c.136.06.126.379-.021.711-.147.333-.377.553-.512.493-.136-.06-.127-.378.021-.71.147-.333.376-.554.512-.494Zm-.549-.245c.133.06.133.353-.001.656-.134.302-.351.5-.485.441-.133-.06-.133-.353.002-.656.134-.302.351-.5.484-.44Z"></path><path fill="#5C913B" d="M174.661 76.774c.143.027.21.313.149.638-.062.326-.227.568-.371.54-.144-.026-.21-.312-.149-.637.061-.326.227-.568.371-.54Zm-.681-.092c.123-.006.233.218.247.5.014.282-.074.515-.197.52-.123.007-.233-.217-.247-.499-.014-.282.074-.515.197-.521Zm4.709 9.469a.236.236 0 0 1-.234-.268c.658-4.905 3.68-7.098 5.431-7.328a.236.236 0 0 1 .062.469c-1.612.212-4.401 2.278-5.025 6.921a.236.236 0 0 1-.234.206Z"></path><path fill="#5C913B" d="M179.584 83.086c-.014.18.491.367 1.13.418.638.05 1.167-.055 1.181-.235.015-.18-.491-.366-1.129-.417-.639-.05-1.168.054-1.182.234ZM180.801 82.81c.594-.022 1.071-.186 1.064-.366-.006-.18-.493-.309-1.088-.288-.594.022-1.071.185-1.064.366.006.18.493.309 1.088.287ZM180.119 81.772c.007.18.445.31.979.291.534-.019.961-.18.955-.361-.007-.18-.445-.311-.979-.292-.534.02-.962.181-.955.362Z"></path><path fill="#5C913B" d="M180.386 81.061c-.017.155.367.323.857.377.49.054.901-.028.918-.182.017-.155-.367-.323-.857-.377-.49-.053-.902.028-.918.182Zm.672-.52c-.015.138.301.286.705.33.405.044.746-.032.761-.17.015-.138-.301-.286-.706-.33-.405-.044-.745.032-.76.17Zm.651-.622c-.044.132.19.327.521.436.331.11.634.091.678-.04.043-.133-.19-.328-.521-.437-.331-.11-.635-.091-.678.04Zm.571-.342c-.045.138.214.347.579.467.366.12.699.107.744-.03.045-.138-.214-.347-.579-.468-.365-.12-.698-.107-.744.03Zm.75-.332c-.04.123.196.311.528.42.332.11.634.1.675-.023.04-.122-.196-.31-.528-.42-.332-.11-.634-.1-.675.023Zm.653-.34c-.036.107.162.268.441.36.279.093.535.08.57-.027.036-.107-.162-.269-.441-.361-.279-.093-.534-.08-.57.027Z"></path><path fill="#5C913B" d="M184.127 78.737c.006.113.249.191.543.176.293-.016.526-.12.521-.233-.007-.113-.249-.192-.543-.176-.294.016-.527.12-.521.233Z"></path><path fill="#77B255" d="M183.995 78.639c.081.078.313-.028.519-.239.205-.21.305-.445.225-.524-.081-.08-.313.028-.519.238-.205.211-.305.446-.225.525Zm-6.694 3.687c-.046.175.419.448 1.038.61.619.164 1.159.155 1.204-.02.047-.174-.418-.447-1.037-.61-.619-.164-1.159-.155-1.205.02Zm.591-.795c-.072.165.291.482.811.707.519.225.998.273 1.07.107.071-.165-.291-.482-.811-.707-.519-.225-.998-.273-1.07-.107Zm.415-.592c-.072.166.254.466.727.67.473.205.914.237.986.072.071-.166-.254-.466-.727-.671-.473-.205-.914-.237-.986-.071Zm.719-.685c-.099.125.096.445.436.714.34.27.695.387.794.262.099-.125-.096-.445-.436-.714-.339-.27-.695-.387-.794-.262Zm.552-.615c-.121.103.008.455.289.785.281.33.608.514.729.41.121-.103-.008-.454-.289-.785-.281-.33-.608-.514-.729-.41Zm.567-.722c-.131.07-.065.45.147.85.213.399.491.666.623.597.131-.07.064-.45-.148-.85-.212-.4-.491-.667-.622-.597Zm.626-.114c-.131.07-.087.409.098.757.186.349.442.575.573.505.131-.07.087-.409-.098-.757-.185-.35-.442-.575-.573-.505Zm.592-.465c-.14.047-.154.388-.03.763s.338.64.479.594c.141-.046.155-.388.031-.763s-.339-.64-.48-.594Zm.587-.247c-.141.046-.163.364-.048.709.114.345.321.587.461.54.141-.046.163-.364.049-.709s-.321-.587-.462-.54Zm.57-.191c-.139.046-.167.338-.063.652.104.315.301.533.439.487.139-.046.167-.338.063-.652-.104-.315-.3-.533-.439-.487Z"></path><path fill="#77B255" d="M183.171 77.714c-.145.013-.24.29-.211.62.03.33.171.588.316.575.146-.013.24-.29.211-.621-.029-.33-.171-.587-.316-.574Zm.687-.026c-.122-.018-.254.194-.295.473-.041.28.024.52.145.539.122.017.254-.194.295-.474.041-.279-.024-.52-.145-.538Z"></path><path fill="#5C913B" d="M177.832 85.43a.237.237 0 0 1-.214-.182c-.031-.135-.825-3.302-5.65-3.44-.118.004-.233-.113-.23-.244a.237.237 0 0 1 .243-.23c5.198.147 6.09 3.771 6.098 3.808a.237.237 0 0 1-.247.288Z"></path><path fill="#77B255" d="M177.498 84.426c.068.167-.358.498-.951.74-.593.24-1.129.3-1.197.133-.068-.167.358-.498.951-.739s1.129-.3 1.197-.134Zm-.293-.5c.048.174-.378.444-.951.603-.573.16-1.077.147-1.125-.026-.049-.174.377-.444.95-.603.574-.16 1.077-.147 1.126.027Zm-.614-.592c.049.174-.33.43-.845.574-.515.143-.971.118-1.02-.056-.048-.174.33-.43.845-.574.516-.143.972-.118 1.02.056Z"></path><path fill="#77B255" d="M176.123 82.738c.062.142-.253.418-.704.617-.451.2-.868.245-.931.104-.062-.142.253-.419.704-.618.451-.199.868-.245.931-.103Zm-.798-.293c.056.127-.201.363-.574.527-.372.165-.72.195-.776.068-.056-.127.201-.363.573-.528.373-.164.72-.194.777-.067Zm-.809-.397c.081.112-.082.37-.365.573-.282.204-.577.279-.659.166-.081-.112.082-.37.365-.573.282-.204.578-.279.659-.166Zm-.648-.153c.085.117-.099.395-.411.62-.312.225-.634.313-.718.195-.085-.117.099-.395.411-.62.312-.226.633-.313.718-.195Zm-.815-.09c.075.104-.093.355-.377.56-.283.205-.574.286-.65.182-.075-.105.093-.356.377-.56.283-.206.574-.287.65-.182Zm-.726-.128c.067.092-.073.306-.311.478s-.485.237-.552.146c-.066-.092.074-.305.312-.478.239-.172.485-.238.551-.146Z"></path><path fill="#77B255" d="M171.854 81.652c.028.109-.18.257-.464.331-.285.074-.539.045-.567-.065-.028-.11.18-.258.464-.331.285-.074.539-.045.567.065Z"></path><path fill="#5C913B" d="M171.95 81.518c-.054.1-.307.068-.566-.07-.259-.14-.426-.333-.373-.433.054-.1.307-.068.566.071.259.14.426.333.373.432Zm7.495 1.494c.096.152-.264.554-.805.896-.541.342-1.058.496-1.154.344-.097-.152.264-.554.805-.896.54-.342 1.057-.496 1.154-.344Zm-.804-.58c.118.136-.132.548-.559.92-.427.37-.869.56-.988.425-.118-.137.132-.548.559-.919.428-.371.87-.562.988-.426Zm-.574-.439c.118.136-.101.521-.49.859-.389.338-.801.502-.919.366-.118-.137.101-.521.49-.859.389-.338.801-.502.919-.366Zm-.892-.436c.132.09.043.453-.2.813-.243.36-.547.578-.679.49-.132-.09-.042-.454.2-.813.243-.36.547-.579.679-.49Zm-.712-.42c.147.063.129.437-.039.837-.169.4-.424.674-.571.611-.147-.061-.13-.436.038-.836.169-.4.424-.673.572-.611Zm-.758-.517c.146.028.198.41.116.855s-.267.785-.413.757c-.146-.027-.198-.41-.116-.854.082-.446.267-.785.413-.758Zm-.632.08c.146.028.206.364.135.752-.072.388-.248.681-.394.655-.146-.027-.206-.364-.135-.752.072-.388.248-.681.394-.654Zm-.705-.263c.148.002.265.323.26.718-.005.394-.129.713-.278.71-.148-.001-.265-.322-.26-.717.005-.395.129-.713.278-.711Zm-.634-.059c.149.002.265.298.261.662-.005.364-.129.657-.277.655-.149-.002-.265-.299-.261-.662.005-.363.129-.657.277-.655Zm-.601-.01c.146.002.261.272.257.604-.004.33-.126.598-.272.596-.146-.002-.261-.272-.257-.603.005-.331.126-.598.272-.597Z"></path><path fill="#5C913B" d="M172.456 80.388c.143-.032.317.204.388.528.072.323.015.61-.128.642-.142.032-.316-.205-.388-.528-.071-.323-.014-.61.128-.642Zm-.662.182c.11-.054.301.109.424.362.124.254.135.504.024.557-.11.054-.3-.108-.424-.362-.123-.253-.134-.503-.024-.557Z"></path><path fill="#77B255" d="M178.499 85.843h-.011a.237.237 0 0 1-.226-.247c.023-.516-.023-3.14-3.166-4.135a.237.237 0 0 1 .143-.45c3.472 1.098 3.521 4.03 3.496 4.606a.237.237 0 0 1-.236.226Z"></path><path fill="#A6D388" d="M178.496 85.426c-.025.179-.524.256-1.113.172-.588-.084-1.045-.297-1.02-.476.026-.178.524-.255 1.113-.171.588.084 1.045.297 1.02.475Z"></path><path fill="#C6E5B3" d="M178.466 84.764c-.025.179-.475.262-1.004.187-.529-.075-.937-.281-.912-.46.025-.178.475-.262 1.004-.187.529.075.937.281.912.46Zm-.303-.832c.001.155-.399.282-.892.284-.493 0-.893-.123-.894-.279 0-.155.399-.282.892-.284.494-.001.894.123.894.279Zm-.346-.547c0 .139-.33.253-.737.254-.408.002-.738-.11-.738-.249-.001-.138.329-.252.737-.254.407 0 .737.11.738.25Zm-.582-.687c.029.135-.224.305-.564.379-.341.074-.641.023-.671-.112-.029-.136.223-.305.564-.38.341-.073.641-.023.671.113Zm-.532-.4c.03.142-.25.322-.625.404-.376.081-.706.032-.736-.11-.031-.14.249-.321.625-.403.375-.081.705-.033.736.109Zm-.487-.437c.028.126-.227.288-.569.363-.342.074-.641.031-.668-.095-.028-.126.227-.288.569-.363.342-.074.641-.031.668.095Zm-.753-.352c.024.111-.19.251-.477.313-.288.063-.54.023-.564-.087-.024-.11.19-.25.477-.313.287-.062.54-.023.564.087Zm-.508-.241c-.018.112-.268.165-.559.118-.29-.047-.511-.175-.493-.286.018-.112.268-.165.558-.118.29.046.511.174.494.286Z"></path><path fill="#A6D388" d="M175.096 81.184c-.089.07-.309-.06-.49-.292-.182-.23-.257-.475-.169-.544.089-.07.309.06.49.292.182.23.258.474.169.544Zm5.483 3.575c.054.172-.34.449-.88.618-.54.169-1.022.166-1.076-.006-.053-.172.341-.449.881-.618.54-.169 1.022-.166 1.075.006Zm-.308-.604c.054.172-.301.437-.793.59-.492.154-.934.14-.988-.033-.055-.172.301-.436.793-.59.492-.154.934-.14.988.033Zm-.488-.841c.086.134-.142.432-.508.664-.366.232-.732.311-.818.177-.085-.135.142-.433.509-.665.366-.232.732-.31.817-.176Zm-.4-.67c.11.116-.056.452-.37.75-.314.299-.658.448-.769.332-.109-.116.056-.452.371-.75.314-.3.658-.448.768-.332Zm-.487-.778c.123.083.017.455-.237.83-.253.375-.558.612-.681.528-.123-.083-.018-.454.236-.83.253-.374.559-.61.682-.528Zm-.611-.18c.123.084.044.416-.177.743-.221.327-.5.525-.623.442-.123-.083-.044-.416.177-.743.221-.327.5-.524.623-.441Zm-.54-.524c.135.062.113.402-.05.762s-.404.602-.54.54c-.135-.06-.112-.402.05-.761.163-.36.405-.602.54-.54Zm-.558-.307c.136.061.124.38-.026.71-.15.331-.381.55-.516.49-.135-.062-.124-.38.026-.711.15-.332.381-.55.516-.49Zm-.546-.25c.133.06.13.354-.006.656-.137.302-.356.498-.488.437-.133-.06-.131-.353.006-.655.136-.302.355-.498.488-.438Z"></path><path fill="#A6D388" d="M176.013 80.351c.143.028.208.314.144.64-.063.325-.231.566-.374.537-.144-.028-.208-.314-.144-.64.063-.324.231-.565.374-.537Zm-.68-.098c.123-.005.232.22.244.502.011.282-.078.515-.202.52-.122.005-.231-.22-.243-.502-.012-.281.078-.514.201-.52Zm3.946 5.476h-.018a.237.237 0 0 1-.218-.255c.098-1.306 1.258-3.458 3.948-3.675a.24.24 0 0 1 .255.217.237.237 0 0 1-.217.255 3.728 3.728 0 0 0-3.514 3.24.237.237 0 0 1-.236.218Z"></path><path fill="#A6D388" d="M179.171 84.992c-.004.18.426.336.96.347.534.011.971-.126.974-.306.004-.18-.426-.336-.961-.347-.533-.012-.969.126-.973.306Zm.433-.773c-.025.153.348.343.835.425.486.08.902.023.927-.13.026-.153-.348-.343-.835-.425-.486-.081-.901-.023-.927.13Zm.431-.483c-.023.137.284.303.686.37.402.067.746.01.769-.126.023-.137-.284-.303-.686-.37-.402-.067-.746-.01-.769.126Zm.685-.584c-.051.13.171.338.495.466.325.128.629.127.68-.002.051-.13-.171-.338-.495-.466-.324-.128-.629-.127-.68.002Zm.52-.407c-.053.135.194.359.551.5.358.14.692.147.744.011.054-.134-.193-.358-.551-.5-.357-.14-.691-.146-.744-.01Z"></path><path fill="#A6D388" d="M181.861 82.491c-.048.12.178.322.503.45s.627.135.675.015c.047-.12-.178-.321-.504-.45-.325-.128-.627-.135-.674-.015Zm.801-.225c-.042.106.146.278.42.386.273.108.529.11.57.005.041-.105-.147-.278-.42-.386-.273-.108-.529-.11-.57-.005Z"></path><path fill="#C6E5B3" d="M183.202 82.11c0 .113.238.206.532.207.293 0 .533-.09.533-.203 0-.113-.238-.205-.532-.206-.294-.001-.532.09-.533.202Z"></path><path fill="#C6E5B3" d="M183.076 82.005c.077.083.315-.01.531-.209.217-.199.331-.427.254-.51-.076-.084-.314.01-.53.208-.217.199-.331.427-.255.51Zm-5.447 2.164c-.081.161.226.48.687.711.46.232.899.288.98.127.081-.161-.226-.48-.687-.711-.46-.232-.899-.288-.98-.127Z"></path><path fill="#C6E5B3" d="M178.246 83.516c-.106.12.071.45.394.738.324.288.673.426.779.306.106-.119-.071-.45-.394-.738-.324-.288-.673-.425-.779-.306Zm.363-.765c-.127.097-.018.455.244.8.262.346.578.549.705.452.127-.096.017-.455-.244-.8-.263-.346-.578-.548-.705-.452Zm.607-.688c-.135.062-.091.445.099.857.189.41.452.694.587.632.135-.063.091-.446-.099-.857-.189-.411-.452-.695-.587-.632Zm.631-.079c-.134.063-.11.404.056.762.165.359.408.599.543.537.134-.063.11-.403-.055-.762-.165-.358-.408-.599-.544-.537Zm.619-.43c-.144.039-.177.379-.075.76.103.382.302.66.445.62.144-.038.177-.378.075-.76-.103-.38-.302-.658-.445-.62Zm.599-.213c-.143.039-.183.355-.089.706.095.35.287.604.431.566.143-.039.183-.354.088-.705-.093-.352-.286-.605-.43-.567Zm.58-.158c-.141.038-.186.328-.1.648s.27.548.411.51c.141-.037.186-.328.1-.647-.086-.32-.27-.549-.411-.51Z"></path><path fill="#C6E5B3" d="M182.306 81.034c-.146.005-.256.277-.246.608.01.33.137.595.283.59.145-.004.256-.276.245-.607-.011-.33-.137-.595-.282-.59Zm.687.014c-.121-.025-.264.18-.322.456-.057.276-.006.52.115.545.12.025.264-.179.321-.455.057-.277.006-.521-.114-.546Z"></path><path fill="#C1694F" d="M178.3 84.97c-2.889 0-5.23-.541-5.23-1.208v1.792c0 .933 2.37 1.689 5.23 1.689 2.86 0 5.23-.757 5.23-1.69v-1.79c0 .666-2.342 1.206-5.23 1.206Z"></path></g><rect width="32" height="24" x="206.3" y="71" fill="#D3F1A7" rx="3"></rect><g clip-path="url(#c)"><path fill="#A0041E" d="m214.744 82.556 3.556-3.112 7.111.445.444 7.111-3.111 3.556s.001-2.667-2.666-5.334-5.334-2.666-5.334-2.666Z"></path><path fill="#FFAC33" d="M214.732 90.556s-.016-3.547 1.327-4.89c1.343-1.342 4.908-1.25 4.908-1.25s-.001 3.473-1.334 4.806c-1.334 1.334-4.901 1.334-4.901 1.334Z"></path><path fill="#FFCC4D" d="M218.299 88.778a1.778 1.778 0 1 0 0-3.556 1.778 1.778 0 0 0 0 3.556Z"></path><path fill="#55ACEE" d="M230.299 75s-4.444 0-9.777 4.444c-2.667 2.223-2.667 6.223-1.778 7.112.889.888 4.889.888 7.111-1.778 4.444-5.334 4.444-9.778 4.444-9.778Z"></path><path fill="#000" d="M226.299 77.222c-.721 0-1.339.432-1.618 1.05.223-.102.469-.16.73-.16a1.778 1.778 0 0 1 1.618 2.506 1.775 1.775 0 0 0-.73-3.396Z"></path><path fill="#A0041E" d="M217.855 87.444s0-1.777.445-2.222c.444-.444 5.778-4.888 6.222-4.444.444.444-4 5.778-4.445 6.222-.444.444-2.222.444-2.222.444Z"></path></g><rect width="54" height="24" x="250.3" y="71" fill="#E9F2FF" rx="3"></rect><path fill="#0C66E4" fill-rule="evenodd" d="M262.3 83v7a.979.979 0 0 0 .599.922c.12.05.249.077.38.078h1.021v-9h-1.02a.988.988 0 0 0-.912.62.97.97 0 0 0-.068.38Zm15.281-.96a3.042 3.042 0 0 0-2.321-1.061h-2.634c.04-.181.08-.36.11-.532.515-2.934 0-4-.504-4.594a2.43 2.43 0 0 0-1.857-.853 3.079 3.079 0 0 0-2.968 2.751c-.393 1.839-.454 2-.968 2.725l-.768 1.089a2.009 2.009 0 0 0-.363 1.141v6.273c.001.532.216 1.041.596 1.416s.896.585 1.433.584h7.247a3.014 3.014 0 0 0 2.997-2.507l.677-4a2.967 2.967 0 0 0-.677-2.432Zm-1.998 6.1a1.01 1.01 0 0 1-1 .835h-7.245v-6.269l.767-1.089a7.587 7.587 0 0 0 1.302-3.509c.036-.543.255-1.209.969-1.108.714.1.575 1.916.363 3.1a19.821 19.821 0 0 1-.868 2.882l5.39-.008a1.007 1.007 0 0 1 .977.733 1 1 0 0 1 .022.432l-.676 4.001h-.001Z" clip-rule="evenodd"></path><path fill="#0C66E4" d="M291.3 88.185c-.729 0-1.374-.121-1.935-.363-.556-.246-.993-.583-1.312-1.011a2.407 2.407 0 0 1-.479-1.477v-.014c0-.414.091-.795.274-1.141.187-.347.444-.638.772-.875a2.912 2.912 0 0 1 1.135-.5v-.034c-.551-.159-.994-.432-1.326-.82a2.03 2.03 0 0 1-.499-1.367v-.014c0-.505.143-.954.43-1.346.292-.392.691-.702 1.197-.93.51-.228 1.091-.342 1.743-.342.656 0 1.237.114 1.743.342.506.228.902.538 1.189.93.288.392.431.84.431 1.346v.014c0 .524-.166.98-.499 1.367-.328.388-.768.661-1.319.82v.035c.428.09.806.257 1.135.499.328.237.583.528.765.875.187.346.28.727.28 1.141v.014c0 .556-.159 1.048-.478 1.477-.315.428-.752.765-1.313 1.011-.56.242-1.205.363-1.934.363Zm0-1.217c.424 0 .797-.073 1.121-.219.328-.15.583-.355.766-.615a1.52 1.52 0 0 0 .28-.896v-.013c0-.338-.091-.636-.274-.896a1.828 1.828 0 0 0-.765-.622 2.679 2.679 0 0 0-1.128-.226c-.424 0-.8.076-1.128.226-.328.15-.586.358-.773.622-.182.26-.273.558-.273.896v.013c0 .333.093.632.28.896.187.26.445.465.773.615.328.146.702.219 1.121.219Zm0-4.71c.369 0 .693-.066.971-.198.282-.133.501-.315.656-.547.159-.233.239-.5.239-.8v-.014c0-.3-.08-.567-.239-.8a1.565 1.565 0 0 0-.656-.546 2.24 2.24 0 0 0-.971-.199c-.369 0-.695.066-.978.199a1.622 1.622 0 0 0-.656.546 1.383 1.383 0 0 0-.239.8v.014c0 .3.08.567.239.8.16.232.378.414.656.547.283.132.609.198.978.198Z"></path><path fill="#F7F8F9" d="M72 106h240.3v38H72z"></path><path fill="#091E42" fill-opacity=".31" d="M80.284 126.1c.762.343 1.58.494 2.419.59.846.096 1.726.121 2.745.121.25-.085.298-.055.222-.247.056-.045.146-.126.083-.197-.215-.448.403-.393.638-.474.187.757 1.643.414 2.995-.216 1.352-.626 2.704-1.453 3.106-1.533.513.605 1.47-.404 2.066-.202-.021.035-.153.222-.167.257.291.187 1.872-.449 3.224-.282.666.075 1.262.307 1.484.514.25.192.18.262-.34.207l.166.212c.049.075.097.156.146.237l.145.231.125.258.132.257.104.277c.007.031.062.126.104.212l.139.257c.097.167.221.328.367.479.596.601 1.657.984 2.766.938a4.391 4.391 0 0 0 1.615-.353c.354-.166.708-.327 1.061-.499.52-.267 1.102-.459 1.664-.706.291-.106.589-.197.887-.302l.451-.157.464-.126c1.234-.373 2.572-.61 3.952-.777 2.759-.327 5.705-.206 8.43.147 2.738.363 5.269.938 7.383 1.644l-.041-.096c.062.04.291.035.312.146.97-.126 3.369.061 3.369.061.859.035 1.726.06 2.593.08 0 0 1.06.247 2.384.419 1.318.187 2.905.252 3.827.015 2.219.217 4.499.303 6.787.116 0 0 .7-.136 1.484-.338.769-.237 1.615-.534 1.92-.832.388-.343.555-.676.492-.923-.062-.252-.36-.423-.901-.439-.534-.005-1.317.116-2.468.389-.035-.025-.139-.041-.166-.086-1.193.383-2.51.373-3.786.308-1.289-.096-2.565-.278-3.916-.353.013.151-.098.257-.167.176l.056-.181c-1.872.206-2.864-.53-4.694-.147l.264-.211c-2.87-.353-6.24-1.029-9.775-1.619-3.536-.58-7.314-1.044-10.767-.858l.035.026-.014.025c.319.096 1.234.202 2.038.338.409.06.791.116 1.068.171.277.051.465.081.465.081a6.653 6.653 0 0 1-1.734.277c-.575.01-1.164-.025-1.761-.08-1.185-.121-2.44-.263-3.632-.121l-.035-.237a15.27 15.27 0 0 0 1.414-.187c.403-.071.728-.126.909-.187-1.886-.09-4.874.111-7.571.994-.672.222-1.338.444-1.934.726-.305.136-.61.262-.894.403-.278.152-.548.298-.811.444l-.195.111c-.062.036.014 0-.013.02l-.049.046a.45.45 0 0 1-.139.08c-.104.046-.242.061-.374.046-.069.086.049.08.132.101.09.02.152.075.215.388a1.453 1.453 0 0 1-.659-.091.772.772 0 0 1-.416-.388c.472-.172.388.005.485-.01a.442.442 0 0 0 .007-.172c.014 0-.027-.075-.062-.141a3.834 3.834 0 0 1-.104-.212c-.069-.146-.201-.312-.319-.489a3.593 3.593 0 0 0-.471-.57c-.097-.101-.201-.201-.305-.312a17.84 17.84 0 0 0-.396-.313c-.256-.222-.63-.408-1.005-.61-.409-.172-.846-.348-1.345-.449-.977-.227-2.03-.242-2.995-.146-.963.101-1.844.302-2.69.524-1.69.454-3.21 1.034-4.644 1.518-1.428.489-2.745.883-3.848 1.069-1.102.187-1.955.187-2.6.116-.637-.075-1.095-.186-1.31-.101-.2.066-.166.323.437.777l-.277.126.014.015Z"></path><rect width="32" height="24" x="163.3" y="113" fill="#EED7FC" rx="3"></rect><rect width="32" height="24" x="207.3" y="113" fill="#CFE1FD" rx="3"></rect><rect width="53" height="24" x="251.3" y="113" fill="#091E42" fill-opacity=".06" rx="3"></rect><path fill="#091E42" fill-opacity=".31" fill-rule="evenodd" d="M263.3 125v7a.98.98 0 0 0 .979 1h1.021v-9h-1.02a.99.99 0 0 0-.912.62.969.969 0 0 0-.068.38Zm15.281-.96a3.041 3.041 0 0 0-2.321-1.061h-2.634c.04-.181.08-.36.11-.532.515-2.934 0-4-.504-4.594a2.43 2.43 0 0 0-1.857-.853 3.075 3.075 0 0 0-2.968 2.751c-.393 1.839-.454 2-.968 2.725l-.768 1.089a2.01 2.01 0 0 0-.363 1.141v6.273c.001.532.216 1.041.596 1.416s.896.585 1.433.584h7.247a3.017 3.017 0 0 0 2.997-2.507l.677-4a2.969 2.969 0 0 0-.677-2.432Zm-1.998 6.1a1.01 1.01 0 0 1-1 .835h-7.245v-6.269l.767-1.089a7.586 7.586 0 0 0 1.302-3.509c.036-.543.255-1.209.969-1.108.714.1.575 1.916.363 3.1a19.832 19.832 0 0 1-.868 2.882l5.39-.008c.297-.001.58.128.773.352a1 1 0 0 1 .226.813l-.676 4.001h-.001Z" clip-rule="evenodd"></path><path fill="#F7F8F9" d="M72 148h240.3v38H72z"></path><path fill="#091E42" fill-opacity=".31" d="M151.461 169.693c-6.052-1.517-1.391-11.383-14.812-6.203 0 0 .142-.292.142-.297-5.687 1.579-13.375 9.395-19.219 5.113-.244.681 1.345 1.742 2.112 1.781-3.392.657-2.798-2.924-3.9-5.008.777.034.874 1.849 1.336 2.266-.823-9.4-16.397-2.789-13.157-2.813-.675.298-3.458 1.949-2.163.783-7.815 3.183-13.629 8.42-17.813-1.743-1.143-1.195-6.155-.975-2.91-.086l-.223.168c3.783.518 2.442 2.683 4.346 4.709-1.3 3.87 6.475 2.636 8.541 2.204-1.386 1.814 7.069-3.726 5.617-2.141 23.2-11.94 8.5 11.531 32.071.571l-.111-.034c4.666-3.677 14.487-8.521 15.873.461.427 1.935 6.662 2.069 4.26.269h.01Z"></path><rect width="32" height="24" x="163.3" y="155" fill="#D3F1A7" rx="3"></rect><rect width="32" height="24" x="207.3" y="155" fill="#FFE48F" rx="3"></rect><rect width="53" height="24" x="251.3" y="155" fill="#091E42" fill-opacity=".06" rx="3"></rect><path fill="#091E42" fill-opacity=".31" fill-rule="evenodd" d="M263.3 167v7a.98.98 0 0 0 .979 1h1.021v-9h-1.02a.99.99 0 0 0-.912.62.969.969 0 0 0-.068.38Zm15.281-.96a3.041 3.041 0 0 0-2.321-1.061h-2.634c.04-.181.08-.36.11-.532.515-2.934 0-4-.504-4.594a2.43 2.43 0 0 0-1.857-.853 3.075 3.075 0 0 0-2.968 2.751c-.393 1.839-.454 2-.968 2.725l-.768 1.089a2.01 2.01 0 0 0-.363 1.141v6.273c.001.532.216 1.041.596 1.416s.896.585 1.433.584h7.247a3.017 3.017 0 0 0 2.997-2.507l.677-4a2.969 2.969 0 0 0-.677-2.432Zm-1.998 6.1a1.01 1.01 0 0 1-1 .835h-7.245v-6.269l.767-1.089a7.586 7.586 0 0 0 1.302-3.509c.036-.543.255-1.209.969-1.108.714.1.575 1.916.363 3.1a19.832 19.832 0 0 1-.868 2.882l5.39-.008c.297-.001.58.128.773.352a1 1 0 0 1 .226.813l-.676 4.001h-.001Z" clip-rule="evenodd"></path><path fill="#172B4D" d="M73.196 53v-9.864h2.065V53h-2.065Zm6.946.116c-.625 0-1.167-.155-1.627-.465-.456-.314-.81-.76-1.06-1.34-.246-.578-.37-1.269-.37-2.07v-.014c0-.807.122-1.5.363-2.079.246-.578.597-1.023 1.053-1.333.456-.31 1.003-.464 1.64-.464.342 0 .66.054.95.164.297.105.557.255.78.45.223.197.397.434.52.712h.123v-4.081h1.996V53h-1.996v-1.169h-.123c-.128.269-.301.5-.52.69-.214.192-.467.34-.759.445-.291.1-.615.15-.97.15Zm.676-1.654c.356 0 .661-.089.916-.267.256-.177.452-.433.588-.765.141-.333.212-.727.212-1.183v-.014c0-.464-.07-.86-.212-1.19a1.665 1.665 0 0 0-.594-.765 1.523 1.523 0 0 0-.91-.273c-.346 0-.65.091-.909.273a1.683 1.683 0 0 0-.588.766c-.136.328-.205.722-.205 1.183v.013c0 .46.069.857.205 1.19.137.332.333.588.588.765.255.178.558.267.91.267Zm9.065 1.695c-.761 0-1.417-.157-1.969-.471a3.213 3.213 0 0 1-1.265-1.354c-.296-.583-.444-1.278-.444-2.085v-.007c0-.797.146-1.49.438-2.078a3.276 3.276 0 0 1 1.25-1.367c.543-.324 1.179-.485 1.908-.485.733 0 1.367.157 1.9.471.533.315.944.755 1.23 1.32.288.565.431 1.228.431 1.989v.622h-6.159V48.46h5.202l-.936 1.183v-.8c0-.451-.07-.827-.212-1.128a1.485 1.485 0 0 0-.574-.677 1.535 1.535 0 0 0-.848-.232c-.319 0-.604.08-.854.239a1.606 1.606 0 0 0-.588.69c-.142.301-.212.67-.212 1.108v.806c0 .424.07.787.212 1.087.14.301.341.531.601.69.26.16.57.24.93.24.291 0 .54-.043.745-.13a1.68 1.68 0 0 0 .492-.3c.128-.12.214-.226.26-.322l.02-.041h1.86l-.014.068c-.06.237-.166.486-.321.745-.155.256-.37.495-.643.718a3.228 3.228 0 0 1-1.011.547c-.401.137-.878.205-1.43.205Zm7.164-.04c-.474 0-.898-.092-1.272-.274a2.133 2.133 0 0 1-.868-.786c-.21-.342-.314-.74-.314-1.197v-.013c0-.452.111-.839.335-1.162.228-.324.558-.577.99-.76.438-.186.97-.298 1.594-.334l2.802-.171v1.217l-2.501.164c-.429.023-.748.114-.957.273a.773.773 0 0 0-.315.65v.013a.8.8 0 0 0 .328.677c.219.164.501.246.848.246.31 0 .585-.061.827-.184s.433-.29.574-.5c.141-.214.212-.453.212-.717v-2.4c0-.328-.11-.578-.328-.752-.214-.177-.526-.266-.937-.266-.36 0-.653.061-.881.184a.903.903 0 0 0-.452.513l-.013.027h-1.846l.007-.061c.055-.442.22-.827.499-1.155.282-.328.66-.584 1.135-.766.478-.182 1.032-.273 1.66-.273.666 0 1.231.102 1.696.307.465.2.818.492 1.06.875.246.378.369.834.369 1.367V53H99.33v-.998h-.123a1.96 1.96 0 0 1-.513.601 2.36 2.36 0 0 1-.738.383c-.278.087-.581.13-.91.13Zm9.201.04c-.684 0-1.267-.093-1.75-.28-.478-.192-.854-.454-1.128-.786a2.142 2.142 0 0 1-.472-1.142l-.006-.027h1.962l.013.027c.082.233.237.424.465.574.232.15.545.226.937.226.255 0 .478-.034.669-.102a1.13 1.13 0 0 0 .452-.294.63.63 0 0 0 .164-.431v-.014c0-.2-.082-.367-.246-.499-.164-.132-.438-.241-.821-.328l-1.258-.267c-.478-.1-.877-.246-1.196-.437a2.01 2.01 0 0 1-.718-.718 2.014 2.014 0 0 1-.232-.984v-.007c0-.474.13-.886.39-1.237.264-.356.631-.631 1.1-.828.474-.195 1.023-.293 1.648-.293.656 0 1.214.1 1.675.3.46.196.813.46 1.059.793.251.328.39.695.417 1.1v.028h-1.852l-.007-.034c-.055-.205-.192-.385-.41-.54-.219-.16-.515-.24-.889-.24-.228 0-.431.035-.609.103a1.025 1.025 0 0 0-.423.287.668.668 0 0 0-.151.438v.007a.6.6 0 0 0 .103.348c.068.1.18.187.335.26.155.073.362.14.622.198l1.251.267c.752.164 1.308.41 1.668.738.36.328.54.77.54 1.327v.006c0 .497-.141.93-.424 1.3-.283.368-.672.655-1.169.86-.497.201-1.066.301-1.709.301Z"></path><path fill="#101214" d="m320.74 32.15 2.03-1.83s.45-1.08.09-1.81c-.22-.45-.56-.89-.93-1.23-.75-.68-1.64-.9-2.03.17-.05-.03-.13-.03-.2-.08-.14 1.36-1.82 1.43-2.43 2.44.24.17-.02.04-.02.04.09 1.07-.93 1.68-.93 1.69-1.33 2.05-3.77 4.34-4.96 6.77l.05.02.04.04c.44.04-.2.64-.27.4-1.41.73-3.31 2.94-3.59 4.5.3.2.14.47.06.35-1.01-.07-9.03 8.65-4.74 8.47l.26.3c.59-.46 4.67-3.99 4.7-3.95.82.43.67-3.45 1.52-1.69 4.49-.84 10.06-11.1 10.06-11.1l.13-1.22s1.62-1 1.15-2.29l.01.01ZM286.71 25.67l-.44-1.14s.98-1.63-.03-2.56l.96-2.56s-.1-1.17-.75-1.65c-.41-.3-.91-.54-1.39-.66-.97-.26-1.87-.05-1.73 1.09-.06 0-.13.03-.22.02.5 1.27-.96 2.1-1.03 3.28.29.04.51.13.35.13l-.36-.08c.57.91-.69 1.15.41 2.1l-.46-.18c-.24 2.44-1.36 5.58-1.29 8.29h.06s.16.68 0 .5c-.92 1.3-1.58 4.13-1.13 5.64.36.04-3.83 12.12-.11 9.99l.37.15c.31-.68.56-1.25 1.45-1.84-.04-.12.04-.11-.35-.19a.648.648 0 0 0-.32-.13c-.94-.18 2.16-5.71 2.16-5.71 3.6-2.81 3.84-14.48 3.84-14.48l.01-.01ZM350.09 48.73c-.34-.95-1.01-1.57-1.87-.81-.03-.05-.1-.09-.14-.17-.77 1.13-2.28.39-3.29 1 .13.26-.04.03-.04.03-.43.98-1.61 1.04-1.61 1.05-2.15 1.18-5.38 2.03-7.57 3.61l.03.04.02.05c.37.24-.48.47-.43.22-1.59-.03-4.31 1.02-5.29 2.25.17.32.26-.58.82.45-.32.15-.58.45-.9.57-.3-.7-.02-.54-.04-.68-.86-.54-12.05 3.34-8.19 5.21l.09.39c.74-.13 2.3-.43 2.23-.58-.38-.87 3.78-.73 3.79-.67l2.14-.77c4.35 1.38 14.12-5 14.12-5l.7-1.01s1.9-.11 2.1-1.47l2.65-.65s.91-.74.93-1.55c.02-.5-.07-1.05-.23-1.52l-.02.01Z"></path></g><defs><clipPath id="a"><path fill="#fff" d="M32 0h320v224H32z"></path></clipPath><clipPath id="b"><path fill="#fff" d="M170.3 75h16v16h-16z"></path></clipPath><clipPath id="c"><path fill="#fff" d="M214.3 75h16v16h-16z"></path></clipPath></defs></svg>
