<svg xmlns="http://www.w3.org/2000/svg" width="352" height="224" fill="none"><g clip-path="url(#a)"><path fill="#1868DB" d="M144 224 140 0h180v224H144Z"></path><path fill="#fff" d="M16 220 0 16l168-8 16 204-168 8Z" style="mix-blend-mode:multiply"></path><path fill="#BF63F3" d="M16 220 0 16l168-8 16 204-168 8Z" style="mix-blend-mode:multiply"></path><path fill="#fff" d="M24 24h160v170H24z"></path><path fill="#091E42" fill-opacity=".06" d="M40 78h16v16H40z"></path><path fill="#091E42" fill-opacity=".31" d="M82.55 84.34a.581.581 0 0 0-.15-.018.248.248 0 0 1-.025-.081.882.882 0 0 1-.22.106c-.012-.031-.024-.063-.024-.106a.696.696 0 0 1-.332.131c-.425-.063-.85-.369-1.288-.356a.758.758 0 0 0-.238 0v.093l-.031.02v-.114a.451.451 0 0 1-.27.163c-.112-.012-.212-.044-.318-.031a.375.375 0 0 0-.2.031c-.407-.112-.938-.219-1.282-.162.006.18-.025 0-.025 0a.797.797 0 0 1-.432.25h-.438c-.075-.019-.131-.038-.131-.038-.138.019-.288.025-.438.032-.244 0-.482 0-.72.012-.769 0-1.594-.044-2.376.037a4.974 4.974 0 0 0-.976-.075c-.663-.018-1.339.076-1.764.326 0 .012 0 .012.006.019-.519-.188-1.726-.338-2.852-.313-.3-.007-.6 0-.888.012-1.77-.087-3.835.194-2.909 1.445 0 0 .863.263 1.689.52.15.087.3.212.469.393.063-.037.069 0 .069-.225.119.038.225.069.325.107.1.181.256.2.438.143a.65.65 0 0 1 .163.063c.037.225 1.444.369 3.14.463.581.306 1.25.394 1.957.388.957.03 2.008-.175 2.997-.194.832 0 1.62.125 2.27.613h.006l-.012-.1s.062-.007.075.106c.019-.031.044-.063.063-.094.243-.313.706-.538.706-.538l.55-.381h.045c.1.025.3.075.525.075.313.019.682-.056.9-.413l1.34.25.074-.031.163.031s.65-.206.844-.663c.12-.288.2-.62.22-.932.03-.575-.157-1.057-.67-.957l-.025-.006Zm-11.447.32h-.069c-.025-.013-.05-.031-.087-.044.05-.013.106-.025.15.038l.006.006Z"></path><path fill="#091E42" fill-opacity=".06" d="M40 106h16v16H40z"></path><path fill="#091E42" fill-opacity=".31" d="M82.55 112.341a.56.56 0 0 0-.15-.019.25.25 0 0 1-.025-.081.88.88 0 0 1-.22.106.263.263 0 0 1-.024-.106.693.693 0 0 1-.332.131c-.425-.062-.85-.369-1.288-.356a.73.73 0 0 0-.238 0v.093c-.012.007-.019.013-.031.019v-.112a.449.449 0 0 1-.27.162c-.112-.012-.212-.044-.318-.031a.38.38 0 0 0-.2.031c-.407-.112-.938-.219-1.282-.162.006.181-.025 0-.025 0a.803.803 0 0 1-.432.25h-.438c-.075-.019-.131-.038-.131-.038-.138.019-.288.025-.438.031-.244 0-.482 0-.72.013-.769 0-1.594-.044-2.376.038a4.942 4.942 0 0 0-.976-.076c-.663-.018-1.339.076-1.764.326 0 .012 0 .012.006.019-.519-.188-1.726-.338-2.852-.313-.3-.007-.6 0-.888.012-1.77-.087-3.835.194-2.909 1.445 0 0 .863.263 1.689.519.15.088.3.213.469.394.063-.037.069 0 .069-.225.119.038.225.069.325.107.1.181.256.2.438.143a.69.69 0 0 1 .163.063c.037.225 1.444.369 3.14.463.581.306 1.25.394 1.957.388.957.031 2.008-.175 2.997-.194.832 0 1.62.125 2.27.613h.006l-.012-.1s.062-.007.075.106c.019-.031.044-.063.063-.094.243-.313.706-.538.706-.538l.55-.381h.045c.1.025.3.075.525.075.313.019.682-.057.9-.413l1.34.25.074-.031.163.031s.65-.206.844-.663c.12-.288.2-.619.22-.932.03-.575-.157-1.057-.67-.957l-.025-.006Zm-11.447.319h-.069c-.025-.013-.05-.031-.087-.044.05-.012.106-.025.15.038l.006.006Z"></path><path fill="#091E42" fill-opacity=".06" d="M40 134h16v16H40z"></path><path fill="#091E42" fill-opacity=".31" d="M82.55 140.341a.56.56 0 0 0-.15-.019.25.25 0 0 1-.025-.081.88.88 0 0 1-.22.106c-.012-.031-.024-.062-.024-.106a.693.693 0 0 1-.332.131c-.425-.062-.85-.369-1.288-.356a.73.73 0 0 0-.238 0v.093c-.012.007-.019.013-.031.019v-.112a.449.449 0 0 1-.27.162c-.112-.012-.212-.044-.318-.031a.38.38 0 0 0-.2.031c-.407-.112-.938-.219-1.282-.162.006.181-.025 0-.025 0a.803.803 0 0 1-.432.25h-.438c-.075-.019-.131-.038-.131-.038-.138.019-.288.025-.438.031-.244 0-.482 0-.72.013-.769 0-1.594-.044-2.376.038a4.942 4.942 0 0 0-.976-.076c-.663-.018-1.339.076-1.764.326 0 .012 0 .012.006.019-.519-.188-1.726-.338-2.852-.313-.3-.007-.6 0-.888.012-1.77-.087-3.835.194-2.909 1.445 0 0 .863.263 1.689.519.15.088.3.213.469.394.063-.037.069 0 .069-.225.119.038.225.069.325.107.1.181.256.2.438.143a.69.69 0 0 1 .163.063c.037.225 1.444.369 3.14.463.581.306 1.25.394 1.957.388.957.031 2.008-.175 2.997-.194.832 0 1.62.125 2.27.613h.006l-.012-.1s.062-.007.075.106c.019-.031.044-.063.063-.094.243-.313.706-.538.706-.538l.55-.381h.045c.1.025.3.075.525.075.313.019.682-.057.9-.413l1.34.25.074-.031.163.031s.65-.206.844-.663c.12-.288.2-.619.22-.932.03-.575-.157-1.057-.67-.957l-.025-.006Zm-11.447.319h-.069c-.025-.013-.05-.031-.087-.044.05-.012.106-.025.15.038l.006.006Z"></path><path fill="#1D7AFC" d="M40 162h16v16H40z"></path><rect width="32" height="32" x="136" y="32" fill="#E9F2FF" rx="3"></rect><path fill="#0C66E4" fill-rule="evenodd" d="M153 47v-4a.998.998 0 0 0-1-1 1 1 0 0 0-1 1v4h-4a1 1 0 1 0 0 2h4v4a.998.998 0 0 0 1 1 1 1 0 0 0 1-1v-4h4a1 1 0 1 0 0-2h-4Z" clip-rule="evenodd"></path><path fill="#DFD8FD" d="M40 40h16v16H40z"></path><path fill="#091E42" fill-opacity=".31" d="M127.107 47.722c-.551.16-1.422.484-2.759.979-.04-.02-.155-.02-.182-.06-1.408.58-2.923.744-4.434.76-1.514.019-3.038-.09-4.611-.096.036.15-.071.26-.164.18l.04-.18c-2.119.285-3.385-.424-5.362-.04l.249-.215a47.765 47.765 0 0 1-2.559-.35 1.332 1.332 0 0 1-.227-.044 1.226 1.226 0 0 1-.493-.26c-.2-.165-.355-.39-.444-.65l-.124-.374-.156-.424a9.563 9.563 0 0 0-.391-.884c-.311-.595-.768-1.254-1.47-1.699-.706-.459-1.546-.524-2.208-.419-.342.05-.644.145-.951.24l-.453.184c-.097.056-.226.07-.315.16l-.276.22-.577.46-.289.23-.297.204-.596.41c-.2.13-.408.234-.608.354-.404.255-.827.4-1.235.6-.422.13-.835.29-1.253.35a6.296 6.296 0 0 1-2.483-.01c-.818-.16-1.613-.495-2.386-.885l.022.04-.022.015c.245.245 1.026.78 1.795 1.109.195.075.382.15.555.22.178.05.342.095.484.13.28.09.467.1.467.1-.569.19-1.186.16-1.79.01-.6-.18-1.19-.455-1.742-.84-1.11-.734-2.097-1.743-3.225-2.492l.124-.19c.965.675 1.835 1.17 2.213 1.284-.804-.61-1.79-1.443-3.048-2.287a10.514 10.514 0 0 0-2.154-1.14c-.4-.164-.844-.264-1.288-.354l-.689-.06c-.231-.025-.466.015-.698.02-.923.095-1.834.39-2.576.86-.333.189-.635.404-.924.629a4.303 4.303 0 0 0-.986-.34c-1.186-.26-2.315-.1-3.319.19-2.017.609-3.638 1.698-4.984 2.717a26.424 26.424 0 0 0-3.123 2.842c-1.453 1.603-1.706 2.242.009 1.108l-.04.295c1.586-1.378 2.968-2.487 4.909-3.346.235-.19.28-.18.195-.35.053-.07.142-.19.08-.245-.235-.4.427-.594.68-.744.155.77 1.546-.1 3.18-.6a5.69 5.69 0 0 1 2.035-.274c-.15.17-.297.335-.449.5-.12.134-.24.264-.377.46-.138.174-.249.359-.355.544a5.334 5.334 0 0 0-.671 2.227c.093-.06.106-.52.253-.994.155-.464.43-.924.755-.919-.662 1.109-.79 2.507-.546 3.696-.342.09-.342-.68-.387-.824-.013.07-.017.185-.013.34 0 .155.013.354.053.584.071.46.231 1.084.613 1.728.102.155.209.315.329.48.129.15.258.314.413.454.307.285.644.57 1.15.774.245.105.574.175.88.18.316 0 .631-.07.938-.21.302-.15.581-.364.826-.634.218-.245.39-.514.533-.79.546-1.103.689-2.277.626-3.475-.08-1.194-.404-2.448-1.128-3.546-.018-.03-.044-.056-.062-.085.182-.1.364-.19.55-.27a3.556 3.556 0 0 1 1.915-.275c1.324.155 2.732 1.049 4.172 2.028 1.452.974 2.985 2.073 4.775 2.692.889.3 1.822.5 2.759.5.928-.016 1.857-.125 2.705-.425 1.72-.54 3.194-1.478 4.491-2.447l.245-.18s.053-.04.049-.035l-.005.005c.009 0 .018-.01.027-.01h.035l.098-.04c.071-.02.142-.055.209-.065.266-.06.528-.105.715-.065.391.065.471.22.653.56l.031-.09c.009.054.129.16.076.26.142.104.324.339.506.659.093.16.182.344.271.534.116.28.276.594.444.844.347.52.764.874 1.084 1.084.32.21.538.295.538.295.306.124.631.2.942.23l.724.034c.484.03.968.035 1.448.05 0 0 1.23.26 2.727.395 1.493.14 3.252.165 4.252-.13 2.496.11 5.015.01 7.529-.445 0 0 .196-.045.498-.15.302-.104.715-.224 1.146-.414.866-.355 1.795-.909 2.159-1.289.444-.504.653-.924.613-1.178-.04-.255-.333-.35-.888-.2Zm-49.71 4.605c-.173-.085-.262-.17-.24-.215.018-.045.16-.04.378-.07a2.395 2.395 0 0 1-.542-.5c-.173-.199-.316-.429-.427-.679a3.184 3.184 0 0 1-.24-.794 3.703 3.703 0 0 1-.026-.859c.058-.579.253-1.153.59-1.613.076-.125.178-.21.276-.335.133-.13.267-.26.4-.394.133-.13.266-.27.4-.395l.324-.274c.071.095.151.194.235.304.302.385.582.9.533 1.219a2.795 2.795 0 0 0-.275-.23c-.049.155.147.7.249 1.489.11.774.093 1.833-.249 2.612-.169.39-.4.649-.68.759a.886.886 0 0 1-.706-.03v.005Z"></path><g filter="url(#b)"><rect width="160" height="132" x="136" y="72" fill="#fff" rx="3"></rect><path fill="#626F86" d="M156 103.995h15.992c-.009 0-.009-9.99-.009-9.99h-15.991c.008 0 .008 9.99.008 9.99Zm-2-12c0-1.103.898-1.995 1.99-1.995h16.02c1.098 0 1.99.895 1.99 1.994v12.012a2.002 2.002 0 0 1-.583 1.408 2.001 2.001 0 0 1-1.407.586h-16.02a1.996 1.996 0 0 1-1.99-1.994V91.995Z"></path><path fill="#626F86" d="M160 92v12h2V92h-2Zm6 0v12h2V92h-2Z"></path><path fill="#626F86" fill-rule="evenodd" d="M156 98h17v2h-17v-2Z" clip-rule="evenodd"></path><path fill="#091E42" fill-opacity=".31" d="M188.275 99.467c.74.457 1.533.659 2.347.787.82.127 1.674.161 2.662.161.243-.114.29-.074.216-.329.053-.061.141-.169.08-.263-.208-.598.39-.524.619-.632.181 1.009 1.594.552 2.905-.289 1.311-.834 2.622-1.936 3.012-2.044.498.807 1.426-.538 2.004-.269-.02.047-.148.296-.162.343.283.249 1.816-.599 3.127-.377.646.101 1.224.41 1.439.686.242.256.175.35-.329.276l.161.282c.047.101.094.209.141.316l.141.31.121.343.128.343c.034.12.067.248.101.37.007.04.061.168.101.282l.134.343c.094.222.216.437.357.638.578.801 1.607 1.312 2.683 1.251a3.314 3.314 0 0 0 1.566-.471c.343-.221.686-.437 1.029-.665.504-.357 1.069-.612 1.614-.942.282-.14.571-.262.861-.403l.437-.209.45-.168c1.197-.497 2.495-.813 3.833-1.035 2.676-.437 5.534-.276 8.176.195 2.656.484 5.11 1.25 7.161 2.192l-.04-.128c.06.054.282.047.303.195.941-.168 3.267.081 3.267.081.834.047 1.675.081 2.515.107 0 0 1.029.33 2.313.559 1.278.248 2.818.336 3.712.02 2.152.289 4.364.403 6.583.154 0 0 .679-.181 1.439-.45.746-.316 1.566-.713 1.862-1.11.377-.457.538-.9.478-1.23-.061-.336-.35-.565-.874-.585-.518-.007-1.278.155-2.394.518-.034-.034-.135-.054-.162-.115-1.156.511-2.434.498-3.671.41-1.251-.127-2.488-.37-3.799-.47.013.202-.094.343-.161.235l.053-.242c-1.815.276-2.777-.706-4.552-.195l.256-.282c-2.784-.47-6.052-1.372-9.481-2.159-3.429-.773-7.094-1.392-10.443-1.143l.034.034-.013.034c.309.127 1.197.268 1.977.45.396.08.766.155 1.035.229.269.067.451.107.451.107a4.863 4.863 0 0 1-1.681.37 11.35 11.35 0 0 1-1.708-.108c-1.15-.161-2.367-.35-3.524-.161l-.033-.316c.504-.06.975-.148 1.371-.249.39-.094.706-.168.881-.249-1.829-.12-4.727.148-7.342 1.325-.653.296-1.298.592-1.876.968-.296.182-.592.35-.868.538-.269.202-.531.397-.787.592l-.188.148c-.06.047.014 0-.013.027l-.047.06a.435.435 0 0 1-.135.108c-.101.06-.235.08-.363.06-.067.115.047.108.128.135.087.027.148.1.208.518a1.063 1.063 0 0 1-.639-.121c-.201-.101-.322-.31-.403-.518.457-.229.377.007.471-.014a.818.818 0 0 0 .006-.228c.014 0-.026-.101-.06-.188a6.59 6.59 0 0 1-.101-.283c-.067-.195-.195-.417-.309-.652a4.783 4.783 0 0 0-.457-.76c-.095-.134-.195-.269-.296-.417a18.591 18.591 0 0 0-.384-.417c-.248-.296-.612-.544-.975-.813-.396-.229-.82-.464-1.304-.599-.948-.302-1.97-.323-2.905-.195-.934.135-1.788.404-2.609.7-1.64.605-3.113 1.378-4.505 2.023-1.385.653-2.663 1.177-3.732 1.426-1.069.249-1.896.249-2.521.155-.619-.101-1.063-.25-1.271-.135-.195.088-.161.43.424 1.036l-.269.168.013.02Z"></path><path fill="#626F86" fill-rule="evenodd" d="M158.995 144H171a.997.997 0 0 1 1 1 .997.997 0 0 1-1 1h-12.005a3.002 3.002 0 0 1-2.995-3.009V131a.997.997 0 0 1 1-1 .997.997 0 0 1 1 1v11.991c0 .557.448 1.009.995 1.009ZM160 134a2 2 0 1 1 4.001.001A2 2 0 0 1 160 134Zm9 2a.997.997 0 0 0-1 1 .997.997 0 0 0 1 1 .997.997 0 0 0 1-1 .997.997 0 0 0-1-1Zm-4.5 3a1.503 1.503 0 0 0-1.5 1.5 1.503 1.503 0 0 0 1.5 1.5 1.503 1.503 0 0 0 1.5-1.5 1.503 1.503 0 0 0-1.5-1.5Z" clip-rule="evenodd"></path><path fill="#091E42" fill-opacity=".31" d="M188.275 139.467c.74.457 1.533.659 2.347.787.82.127 1.674.161 2.662.161.243-.114.29-.074.216-.329.053-.061.141-.169.08-.263-.208-.598.39-.524.619-.632.181 1.009 1.594.552 2.905-.289 1.311-.834 2.622-1.936 3.012-2.044.498.807 1.426-.538 2.004-.269-.02.047-.148.296-.162.343.283.249 1.816-.598 3.127-.377.646.101 1.224.411 1.439.686.242.256.175.35-.329.276l.161.282c.047.101.094.209.141.316l.141.31.121.343.128.343.101.369c.007.041.061.168.101.283l.134.343c.094.222.216.437.357.638.578.801 1.607 1.312 2.683 1.251a3.314 3.314 0 0 0 1.566-.471c.343-.221.686-.437 1.029-.665.504-.357 1.069-.612 1.614-.942.282-.141.571-.262.861-.403l.437-.208.45-.169c1.197-.497 2.495-.813 3.833-1.035 2.676-.437 5.534-.276 8.176.195 2.656.484 5.11 1.251 7.161 2.192l-.04-.128c.06.054.282.047.303.195.941-.168 3.267.081 3.267.081.834.047 1.675.081 2.515.107 0 0 1.029.33 2.313.559 1.278.248 2.818.336 3.712.02 2.152.289 4.364.403 6.583.154 0 0 .679-.181 1.439-.45.746-.316 1.566-.713 1.862-1.11.377-.457.538-.901.478-1.23-.061-.336-.35-.565-.874-.585-.518-.007-1.278.155-2.394.518-.034-.034-.135-.054-.162-.115-1.156.511-2.434.498-3.671.411-1.251-.128-2.488-.37-3.799-.471.013.202-.094.343-.161.235l.053-.242c-1.815.276-2.777-.706-4.552-.195 0 0 .249-.276.256-.282-2.784-.471-6.052-1.372-9.481-2.159-3.429-.773-7.094-1.392-10.443-1.143l.034.034-.013.033c.309.128 1.197.269 1.977.451.396.081.766.155 1.035.229.269.067.451.107.451.107a4.85 4.85 0 0 1-1.681.37c-.559.013-1.13-.034-1.708-.108-1.15-.161-2.367-.349-3.524-.161l-.033-.316c.504-.06.975-.148 1.371-.249.39-.094.706-.168.881-.249-1.829-.121-4.727.148-7.342 1.325-.653.296-1.298.592-1.876.968-.296.182-.592.35-.868.538-.269.202-.531.397-.787.592l-.188.148c-.06.047.014 0-.013.027l-.047.06a.43.43 0 0 1-.135.108c-.101.06-.235.081-.363.06-.067.115.047.108.128.135.087.027.148.101.208.518a1.067 1.067 0 0 1-.639-.121c-.201-.101-.322-.31-.403-.518.457-.229.377.007.471-.014a.812.812 0 0 0 .006-.228c.014 0-.026-.101-.06-.188a6.882 6.882 0 0 1-.101-.283c-.067-.195-.195-.417-.309-.652a4.793 4.793 0 0 0-.457-.76c-.095-.134-.195-.269-.296-.417-.121-.134-.249-.276-.384-.417-.248-.296-.612-.544-.975-.813-.396-.229-.82-.464-1.304-.599-.948-.302-1.97-.323-2.905-.195-.934.135-1.788.404-2.609.7-1.64.605-3.113 1.378-4.505 2.023-1.385.653-2.663 1.177-3.732 1.426-1.069.249-1.896.249-2.521.155-.619-.101-1.063-.249-1.271-.135-.195.088-.161.43.424 1.036l-.269.168.013.02Z"></path><path fill="#E9F2FF" d="M136 158h160v40H136z"></path><path fill="#0C66E4" d="M156 184h16.008c-.008 0-.008-12-.008-12h-16.008c.008 0 .008 12 .008 12Zm-2-12.006c0-1.101.898-1.994 1.99-1.994h16.02c1.098 0 1.99.895 1.99 1.994v12.012a2.002 2.002 0 0 1-.583 1.408 2.001 2.001 0 0 1-1.407.586h-16.02a1.996 1.996 0 0 1-1.99-1.994v-12.012Z"></path><path fill="#0C66E4" d="M160 172v12h2v-12h-2Zm6 0v12h2v-12h-2ZM189.258 183v-9.864h1.196l5.653 8.107-.82-.431h.629v-7.676h1.217V183h-1.196l-5.654-8.08.821.431h-.629V183h-1.217Zm13.248.13c-.702 0-1.306-.155-1.812-.465a3.083 3.083 0 0 1-1.162-1.312c-.269-.57-.403-1.24-.403-2.01v-.007c0-.761.134-1.429.403-2.003a3.224 3.224 0 0 1 1.156-1.347c.496-.323 1.077-.485 1.743-.485.67 0 1.244.155 1.722.465.483.31.853.743 1.108 1.299.26.551.389 1.194.389 1.927v.465h-5.906v-.95h5.298l-.588.868v-.471c0-.579-.086-1.055-.26-1.429-.173-.374-.412-.652-.717-.834a1.978 1.978 0 0 0-1.053-.28c-.397 0-.752.098-1.067.293-.309.192-.556.477-.738.855-.182.378-.273.843-.273 1.395v.471c0 .524.089.973.266 1.347.178.369.431.654.759.854.328.196.716.294 1.162.294a2.5 2.5 0 0 0 .868-.136c.246-.092.449-.208.609-.349a1.28 1.28 0 0 0 .335-.431l.027-.061h1.19l-.014.054a2.27 2.27 0 0 1-.342.732 2.746 2.746 0 0 1-.622.636 3.218 3.218 0 0 1-.909.451 3.89 3.89 0 0 1-1.169.164Zm6.412-.13-2.064-7.369h1.189l1.449 5.892h.11l1.647-5.892h1.128l1.647 5.892h.11l1.449-5.892h1.183L214.701 183h-1.196l-1.648-5.701h-.109L210.107 183h-1.189Zm13.357 0v-7.369h1.19v1.094h.109c.141-.388.381-.689.718-.903.337-.214.754-.321 1.251-.321.114 0 .226.007.335.02.114.01.2.019.26.028v1.155a3.348 3.348 0 0 0-.363-.048 3.26 3.26 0 0 0-.369-.02c-.378 0-.713.075-1.005.225-.291.151-.521.36-.69.629a1.778 1.778 0 0 0-.246.944V183h-1.19Zm8.156.13c-.698 0-1.301-.153-1.812-.458a3.102 3.102 0 0 1-1.176-1.319c-.273-.57-.41-1.247-.41-2.031v-.013c0-.789.137-1.468.41-2.038a3.055 3.055 0 0 1 1.176-1.312c.511-.305 1.114-.458 1.812-.458.701 0 1.305.153 1.811.458.506.305.896.743 1.169 1.312.278.57.417 1.249.417 2.038v.013c0 .784-.139 1.461-.417 2.031a3.055 3.055 0 0 1-1.169 1.319c-.506.305-1.11.458-1.811.458Zm0-1.053c.465 0 .859-.109 1.182-.328.324-.219.57-.533.739-.943.173-.41.259-.905.259-1.484v-.013c0-.584-.086-1.08-.259-1.491-.169-.41-.415-.722-.739-.936-.323-.219-.717-.328-1.182-.328-.465 0-.859.109-1.183.328-.324.214-.572.526-.745.936-.169.411-.253.907-.253 1.491v.013c0 .579.084 1.074.253 1.484.173.41.421.724.745.943.324.219.718.328 1.183.328Zm7.266 1.053a2.89 2.89 0 0 1-1.258-.267 2.149 2.149 0 0 1-.881-.759c-.215-.328-.322-.715-.322-1.162v-.013c0-.438.105-.811.315-1.121.209-.315.515-.561.916-.739.401-.177.886-.282 1.456-.314l2.707-.164v.95l-2.564.164c-.56.032-.97.148-1.23.349-.255.2-.383.483-.383.847v.014c0 .374.141.665.424.875.283.205.638.308 1.066.308.406 0 .766-.08 1.08-.24.315-.164.561-.385.739-.663.182-.278.273-.592.273-.943v-2.297c0-.456-.139-.802-.417-1.039-.273-.242-.686-.362-1.237-.362-.442 0-.805.079-1.087.239a1.152 1.152 0 0 0-.567.663l-.007.021h-1.19l.007-.041c.064-.388.223-.725.479-1.012a2.552 2.552 0 0 1 1.005-.677c.41-.164.877-.246 1.401-.246.601 0 1.11.098 1.524.294.42.196.736.478.95.848.219.364.329.802.329 1.312V183h-1.19v-1.087h-.109a2.482 2.482 0 0 1-1.313 1.08 2.929 2.929 0 0 1-.916.137Zm8.422 0c-.62 0-1.162-.157-1.627-.472-.465-.314-.825-.756-1.08-1.326-.255-.574-.383-1.244-.383-2.01v-.013c0-.771.128-1.441.383-2.01.255-.57.613-1.012 1.073-1.326.465-.315 1.01-.472 1.634-.472.337 0 .654.055.95.164.301.105.568.253.8.444.233.192.415.42.547.684h.109v-4.088h1.19V183h-1.19v-1.176h-.109c-.15.274-.34.508-.567.704-.228.192-.488.34-.78.445a2.805 2.805 0 0 1-.95.157Zm.274-1.053c.446 0 .831-.112 1.155-.335.323-.223.572-.54.745-.95.173-.415.26-.905.26-1.47v-.013c0-.57-.087-1.06-.26-1.47a2.123 2.123 0 0 0-.745-.95c-.324-.224-.709-.335-1.155-.335-.447 0-.832.111-1.156.335-.319.218-.565.533-.738.943-.169.41-.253.902-.253 1.477v.013c0 .57.084 1.062.253 1.477.173.41.419.727.738.95.324.219.709.328 1.156.328Zm5.605.923v-7.369h1.19v1.121h.109c.164-.397.415-.704.752-.923.342-.219.754-.328 1.237-.328.333 0 .631.055.896.164.264.109.492.262.683.458.192.191.344.415.458.67h.11a2.2 2.2 0 0 1 .533-.677c.223-.196.481-.346.772-.451.297-.109.613-.164.95-.164.502 0 .926.093 1.272.28.351.187.617.461.8.821.182.355.273.79.273 1.305V183h-1.189v-4.819c0-.365-.057-.666-.171-.903a1.109 1.109 0 0 0-.506-.54c-.228-.123-.515-.184-.861-.184-.342 0-.641.077-.896.232a1.63 1.63 0 0 0-.595.622c-.141.255-.211.54-.211.855V183h-1.19v-5.004a1.46 1.46 0 0 0-.191-.759 1.25 1.25 0 0 0-.534-.506 1.727 1.727 0 0 0-.806-.177c-.319 0-.609.084-.868.253a1.8 1.8 0 0 0-.609.683 2.026 2.026 0 0 0-.218.944V183h-1.19Zm14.205.13a2.89 2.89 0 0 1-1.258-.267 2.158 2.158 0 0 1-.882-.759c-.214-.328-.321-.715-.321-1.162v-.013c0-.438.105-.811.315-1.121.209-.315.515-.561.916-.739.401-.177.886-.282 1.456-.314l2.707-.164v.95l-2.564.164c-.56.032-.97.148-1.23.349-.255.2-.383.483-.383.847v.014c0 .374.141.665.424.875.282.205.638.308 1.066.308.406 0 .766-.08 1.08-.24.315-.164.561-.385.739-.663.182-.278.273-.592.273-.943v-2.297c0-.456-.139-.802-.417-1.039-.273-.242-.686-.362-1.237-.362-.442 0-.805.079-1.087.239a1.157 1.157 0 0 0-.568.663l-.006.021h-1.19l.007-.041c.064-.388.223-.725.478-1.012.26-.292.595-.517 1.005-.677a3.757 3.757 0 0 1 1.402-.246c.601 0 1.109.098 1.524.294.419.196.736.478.95.848.219.364.328.802.328 1.312V183h-1.189v-1.087h-.109a2.482 2.482 0 0 1-1.313 1.08 2.929 2.929 0 0 1-.916.137Zm5.701 2.331v-9.83h1.19v1.176h.109c.151-.274.34-.506.568-.698.227-.196.487-.346.779-.451a2.78 2.78 0 0 1 .95-.157c.624 0 1.167.159 1.627.478.465.315.825.757 1.08 1.327.255.569.383 1.237.383 2.003v.013c0 .77-.128 1.44-.383 2.01-.255.57-.615 1.012-1.08 1.326-.46.315-1.003.472-1.627.472a2.91 2.91 0 0 1-.957-.157 2.717 2.717 0 0 1-.793-.452 2.21 2.21 0 0 1-.547-.683h-.109v3.623h-1.19Zm3.323-3.384c.451 0 .836-.109 1.155-.328.319-.223.563-.54.731-.95.173-.415.26-.907.26-1.477v-.013c0-.575-.087-1.067-.26-1.477-.168-.41-.412-.725-.731-.943-.319-.224-.704-.335-1.155-.335-.447 0-.832.111-1.156.335-.323.223-.572.54-.745.95-.173.41-.26.9-.26 1.47v.013c0 .565.087 1.055.26 1.47.173.41.422.727.745.95.324.223.709.335 1.156.335Z"></path></g><path fill="#101214" d="M69.704 171.65c1.553-2.177 18.525-6.984 17.518-2.894-4.01.884-8.154 3.273-11.458 4.252.066.04-.058.097-.132.196.612.169 1.402 1.094 2.088 1.051 2.9 2.296 6.457 3.097 9.685 4.832-.26.427.111.439.127.075 1.96 1.597 17.928 7.919 23.861 6.283-12.575-12.114 15.956-15.433 6.294-.226 3.863 1.604 8.723 2.08 12.89.983 3.717-.92 6.619-3.064 8.292-4.388 1.624-1.368 2.439-1.652 1.445.435l.377.036c-1.48 1.812-2.867 3.149-4.762 4.913-.34.13-1.627-.271-1.955-.179.339.492.069.945-.554 1.355-.644.368-1.642.692-2.719.805-2.161.297-4.463-.178-4.977-.148-.265 1.166-2.163-.065-2.778.302.036.052.299.338.331.383-.342.35-2.917-.356-4.852-1.322-1.076-.509-1.815-.972-2.425-1.22-.408.625-2.439 1.652-3.944 2.126-4.198 1.177-12.915-.258-13.031-.121-2.167-1.359-4.885-2.52-6.913-3.871-4.778-1.602-17.39-9.187-18.234-10.094.162.623.538 1.404.96 2.239 0 0 .921 1.779 1.088 2.131.106-.053.123.068.217.08.007 1.035 1.02 2.436.57 3.138l1.576 2.329c.694 8.137-8.125-9.256-8.355-12.456l.04.03s-.16-1.131-.276-1.05l.006-.005Zm44.359 12.422c1.024-1.574-.027 1.221-.822 1.493.65 1.469 3.818-3.099 3.311-5.164-.062-2.304-1.514 3.41-.877-.206-3.071-5.011-4.464 3.2-1.612 3.877Z"></path></g><defs><clipPath id="a"><path fill="#fff" d="M0 0h320v224H0z"></path></clipPath><filter id="b" width="184" height="156" x="124" y="68" color-interpolation-filters="sRGB" filterUnits="userSpaceOnUse"><feFlood flood-opacity="0" result="BackgroundImageFix"></feFlood><feColorMatrix in="SourceAlpha" result="hardAlpha" values="0 0 0 0 0 0 0 0 0 0 0 0 0 0 0 0 0 0 127 0"></feColorMatrix><feOffset dy="8"></feOffset><feGaussianBlur stdDeviation="6"></feGaussianBlur><feColorMatrix values="0 0 0 0 0.0352941 0 0 0 0 0.117647 0 0 0 0 0.258824 0 0 0 0.15 0"></feColorMatrix><feBlend in2="BackgroundImageFix" result="effect1_dropShadow_1_2680"></feBlend><feColorMatrix in="SourceAlpha" result="hardAlpha" values="0 0 0 0 0 0 0 0 0 0 0 0 0 0 0 0 0 0 127 0"></feColorMatrix><feOffset></feOffset><feGaussianBlur stdDeviation=".5"></feGaussianBlur><feColorMatrix values="0 0 0 0 0.0352941 0 0 0 0 0.117647 0 0 0 0 0.258824 0 0 0 0.31 0"></feColorMatrix><feBlend in2="effect1_dropShadow_1_2680" result="effect2_dropShadow_1_2680"></feBlend><feBlend in="SourceGraphic" in2="effect2_dropShadow_1_2680" result="shape"></feBlend></filter></defs></svg>
