<svg xmlns="http://www.w3.org/2000/svg" fill="none" viewBox="0 0 222 193" id="root" data-bid="vxg3xwqrt8n7hxnqbmsmh67"><g clip-path="url(#a)"><path fill="#fff" fill-opacity=".01" d="M.099 0h221.4v193H.099V0Z"></path><path fill="url(#b)" d="M215.299 0h-209a5.2 5.2 0 0 0-5.2 5.2v32.65a5.2 5.2 0 0 0 5.2 5.2h209a5.2 5.2 0 0 0 5.2-5.2V5.2a5.2 5.2 0 0 0-5.2-5.2"></path><path fill="#0065FF" d="M39.199 9h-18.2a3 3 0 0 0-3 3v18.19a3 3 0 0 0 3 3h18.2a3 3 0 0 0 3-3V12a3 3 0 0 0-3-3"></path><path fill="#B3BAC5" d="M158.098 20.5h-80.7v2h80.7z"></path><path fill="#36B37E" d="M60.099 30.6a1.1 1.1 0 0 1-.7-.3l-7.2-7.2a1 1 0 1 1 1.4-1.4l6.5 6.5 6.6-6.5a1.001 1.001 0 1 1 1.4 1.4l-7.3 7.2a.899.899 0 0 1-.7.3"></path><path fill="#36B37E" d="M60.099 22.1a1.1 1.1 0 0 1-.7-.3l-7.2-7.3a1.002 1.002 0 0 1 .25-1.737 1 1 0 0 1 1.15.337l6.5 6.6 6.6-6.6a1 1 0 0 1 1.4 1.4l-7.3 7.3a.899.899 0 0 1-.7.3"></path><path fill="#B3BAC5" d="M193.999 8.9h-8.4c-6.683 0-12.1 5.416-12.1 12.095 0 6.68 5.417 12.095 12.1 12.095h8.4c6.683 0 12.1-5.415 12.1-12.095 0-6.68-5.417-12.095-12.1-12.095"></path><path fill="url(#c)" d="M215.299 49.6h-209a5.2 5.2 0 0 0-5.2 5.2v32.65a5.2 5.2 0 0 0 5.2 5.2h209a5.2 5.2 0 0 0 5.2-5.2V54.8a5.2 5.2 0 0 0-5.2-5.2"></path><path fill="#36B37E" d="M39.199 58.6h-18.2a3 3 0 0 0-3 3v18.19a3 3 0 0 0 3 3h18.2a3 3 0 0 0 3-3V61.6a3 3 0 0 0-3-3"></path><path fill="#B3BAC5" d="M158.098 70.2h-80.7v2h80.7v-2"></path><path fill="#36B37E" d="M60.099 80.3a1.1 1.1 0 0 1-.7-.3l-7.2-7.3a1.001 1.001 0 1 1 1.4-1.4l6.5 6.6 6.6-6.6a1 1 0 0 1 1.4 1.4l-7.3 7.3a.9.9 0 0 1-.7.3"></path><path fill="#36B37E" d="M60.099 71.7a1.1 1.1 0 0 1-.7-.3l-7.2-7.2a1.001 1.001 0 1 1 1.4-1.4l6.5 6.5 6.6-6.5a1 1 0 0 1 1.4 1.4l-7.3 7.2a.899.899 0 0 1-.7.3"></path><path fill="#B3BAC5" d="M193.999 58.5h-8.4c-6.683 0-12.1 5.415-12.1 12.095 0 6.68 5.417 12.095 12.1 12.095h8.4c6.683 0 12.1-5.415 12.1-12.095 0-6.68-5.417-12.095-12.1-12.095"></path><path fill="url(#d)" d="M215.299 99.3h-209a5.2 5.2 0 0 0-5.2 5.2v32.65a5.2 5.2 0 0 0 5.2 5.2h209a5.2 5.2 0 0 0 5.2-5.2V104.5a5.2 5.2 0 0 0-5.2-5.2"></path><path fill="#36B37E" d="M39.199 108.3h-18.2a3 3 0 0 0-3 3v18.19a3 3 0 0 0 3 3h18.2a3 3 0 0 0 3-3V111.3a3 3 0 0 0-3-3"></path><path fill="#B3BAC5" d="M158.098 119.8h-80.7v2h80.7zM193.999 108.1h-8.4c-6.683 0-12.1 5.415-12.1 12.095 0 6.679 5.417 12.095 12.1 12.095h8.4c6.683 0 12.1-5.416 12.1-12.095 0-6.68-5.417-12.095-12.1-12.095"></path><path fill="#C1C7D0" d="M215.399 193H6.299a6.199 6.199 0 0 1-6.2-6.2v-30.1a6.2 6.2 0 0 1 6.2-6.2h209.1a6.094 6.094 0 0 1 4.349 1.822 6.096 6.096 0 0 1 1.751 4.378v30.1a6.1 6.1 0 0 1-6.1 6.2m-209.1-40.5a4.198 4.198 0 0 0-4.2 4.2v30.1a4.195 4.195 0 0 0 2.592 3.88c.51.211 1.056.32 1.608.32h209.1a4.105 4.105 0 0 0 2.935-1.236 4.095 4.095 0 0 0 1.165-2.964v-30.1a4.108 4.108 0 0 0-1.165-2.964 4.105 4.105 0 0 0-2.935-1.236H6.299"></path><path fill="#36B37E" d="M60.099 129.7a1.093 1.093 0 0 1-.7-.3l-7.2-7.2a.997.997 0 0 1 .25-1.736.988.988 0 0 1 .829.058c.125.069.235.164.32.278l6.5 6.5 6.6-6.5a1.002 1.002 0 0 1 1.598.73.996.996 0 0 1-.197.67l-7.3 7.2a.891.891 0 0 1-.7.3"></path><path fill="#36B37E" d="M60.099 121.2a1.099 1.099 0 0 1-.7-.3l-7.2-7.3a1.002 1.002 0 0 1 .093-1.307 1 1 0 0 1 1.307-.093l6.5 6.5 6.6-6.5a.997.997 0 0 1 1.307.093 1 1 0 0 1 .093 1.307l-7.3 7.3a.904.904 0 0 1-.7.3"></path><path fill="#C1C7D0" d="M11.499 184.7a.998.998 0 0 1-1-1v-23.5a1.102 1.102 0 0 1 1-1 1.002 1.002 0 0 1 1 1v23.5a.9.9 0 0 1-1 1"></path><path fill="#0065FF" d="M7.599 0h1.1v43h-1.1a6.5 6.5 0 0 1-6.5-6.4V6.5a6.5 6.5 0 0 1 6.5-6.5M7.599 49.6h1.1v43h-1.1a6.5 6.5 0 0 1-6.5-6.4V56.1a6.5 6.5 0 0 1 6.5-6.5"></path><path fill="#36B37E" d="M7.599 99.3h1.1v43h-1.1a6.5 6.5 0 0 1-6.5-6.4v-30.1a6.5 6.5 0 0 1 6.5-6.5"></path><path fill="#fff" d="M28.798 25a1.1 1.1 0 0 1-.7-.3l-3.7-3.8a1 1 0 0 1 1.4-1.4l3.1 3.1 5.5-5.1a1.001 1.001 0 1 1 1.4 1.4l-6.3 5.8a.899.899 0 0 1-.7.3M33.999 76.6l-3.8-3.3-3.7 3.3a.9.9 0 0 1-1.5-.7V65.1a.9.9 0 0 1 .9-1h8.7a.9.9 0 0 1 .9 1v10.8a.9.9 0 0 1-1.5.7M33.999 126.3l-3.8-3.3-3.7 3.3a.906.906 0 0 1-.981.145.898.898 0 0 1-.52-.845v-10.8a.9.9 0 0 1 .9-1h8.7a.886.886 0 0 1 .37.077.887.887 0 0 1 .493.548.898.898 0 0 1 .038.375v10.8a.898.898 0 0 1-.52.845c-.159.075-.337.101-.511.075a.907.907 0 0 1-.47-.22"></path></g><defs><linearGradient id="b" x1="46.719" x2="174.919" y1="85.63" y2="-42.58" gradientUnits="userSpaceOnUse"><stop stop-color="#C1C7D0"></stop><stop offset=".02" stop-color="#C3C9D1"></stop><stop offset=".17" stop-color="#D3D6DC"></stop><stop offset=".34" stop-color="#DCDEE3"></stop><stop offset=".58" stop-color="#DFE1E5"></stop></linearGradient><linearGradient id="c" x1="10229.5" x2="12315.1" y1="5872.97" y2="-4755.83" gradientUnits="userSpaceOnUse"><stop stop-color="#C1C7D0"></stop><stop offset=".02" stop-color="#C3C9D1"></stop><stop offset=".17" stop-color="#D3D6DC"></stop><stop offset=".34" stop-color="#DCDEE3"></stop><stop offset=".58" stop-color="#DFE1E5"></stop></linearGradient><linearGradient id="d" x1="10229.5" x2="12315.1" y1="8059.68" y2="-2569.12" gradientUnits="userSpaceOnUse"><stop stop-color="#C1C7D0"></stop><stop offset=".02" stop-color="#C3C9D1"></stop><stop offset=".17" stop-color="#D3D6DC"></stop><stop offset=".34" stop-color="#DCDEE3"></stop><stop offset=".58" stop-color="#DFE1E5"></stop></linearGradient><clipPath id="a"><path fill="#fff" d="M.099 0h221.4v193H.099V0Z"></path></clipPath></defs></svg>